<svg width="24" height="24" fill="currentColor" xmlns="http://www.w3.org/2000/svg"><path d="M6.125 3.25a.875.875 0 00-.875.875V20.75H7v-2.625A1.125 1.125 0 018.125 17h7.75A1.125 1.125 0 0117 18.125v2.625h1.75v-9.125a.875.875 0 00-.875-.875h-2.5a.625.625 0 01-.625-.625v-6a.874.874 0 00-.875-.875h-7.75zM4.625 22A.625.625 0 014 21.375V4.125A2.125 2.125 0 016.125 2h7.75A2.125 2.125 0 0116 4.125V9.5h1.875A2.125 2.125 0 0120 11.625v9.75c0 .345-.28.625-.625.625H4.625zm3.625-1.25h3.125v-2.5H8.25v2.5zm4.375 0h3.125v-2.5h-3.125v2.5zM9 7a1 1 0 11-2 0 1 1 0 012 0zm-1 4.5a1 1 0 100-2 1 1 0 000 2zM9 14a1 1 0 11-2 0 1 1 0 012 0zm3-6a1 1 0 100-2 1 1 0 000 2zm1 2.5a1 1 0 11-2 0 1 1 0 012 0zM12 15a1 1 0 100-2 1 1 0 000 2zm5-1a1 1 0 11-2 0 1 1 0 012 0z"/></svg>