<svg width="24" height="24" fill="none" xmlns="http://www.w3.org/2000/svg"><path d="M16.555 18H6.778a1.95 1.95 0 01-.683-.123 1.79 1.79 0 01-.577-.349 1.6 1.6 0 01-.385-.521A1.462 1.462 0 015 16.392V8.888c0-.255.133-.49.356-.643l5.762-3.418a.952.952 0 01.534-.16c.192 0 .38.056.533.16l5.793 3.418a.786.786 0 01.355.643v7.504c.002.21-.044.42-.132.615a1.6 1.6 0 01-.385.521c-.165.15-.362.268-.578.35a1.95 1.95 0 01-.683.122z" stroke="#1B3346" stroke-width="2" stroke-miterlimit="10" stroke-linejoin="round"/><path d="M10.037 11.334h3.26c.326 0 .592.24.592.533V18H9.445v-6.133c0-.294.266-.534.592-.534z" stroke="#1B3346" stroke-width="2" stroke-miterlimit="10" stroke-linejoin="round"/></svg>