<svg width="34" height="33" viewBox="0 0 34 33" fill="none" xmlns="http://www.w3.org/2000/svg">
<path d="M17 0C7.60887 0 0 7.38508 0 16.5C0 25.6149 7.60887 33 17 33C26.3911 33 34 25.6149 34 16.5C34 7.38508 26.3911 0 17 0ZM25.3492 11.3038L22.5593 24.0647C22.3536 24.9696 21.7984 25.1891 21.0238 24.7633L16.7738 21.7228L14.7242 23.6389C14.498 23.8585 14.306 24.0448 13.8673 24.0448L14.169 19.8466L22.0452 12.9405C22.3879 12.6478 21.9698 12.4815 21.5173 12.7742L11.7835 18.7222L7.58831 17.4514C6.67661 17.172 6.65605 16.5665 7.78024 16.1407L24.1702 10.0065C24.931 9.74032 25.596 10.1861 25.3492 11.3038Z" fill="white"/>
</svg>
