<svg width="32" height="35" viewBox="0 0 32 35" fill="none" xmlns="http://www.w3.org/2000/svg">
<path fill-rule="evenodd" clip-rule="evenodd" d="M23.7934 0.880076C18.5497 -0.292056 13.112 -0.292056 7.86835 0.880076L7.30335 1.00508C5.82798 1.33396 4.47283 2.06587 3.38879 3.11931C2.30474 4.17275 1.53434 5.50639 1.16335 6.97174C-0.1635 12.2096 -0.1635 17.6956 1.16335 22.9334C1.51719 24.3309 2.23464 25.6098 3.24281 26.6402C4.25097 27.6706 5.51393 28.4158 6.90335 28.8001L7.67835 33.4267C7.70309 33.5737 7.76676 33.7113 7.86274 33.8252C7.95872 33.9392 8.08349 34.0253 8.22406 34.0746C8.36463 34.124 8.51586 34.1348 8.66201 34.1058C8.80816 34.0769 8.94387 34.0093 9.05502 33.9101L13.6067 29.8384C17.0235 30.0447 20.4523 29.7715 23.7934 29.0267L24.36 28.9017C25.8354 28.5729 27.1905 27.841 28.2746 26.7875C29.3586 25.7341 30.129 24.4004 30.5 22.9351C31.8269 17.6972 31.8269 12.2112 30.5 6.97341C30.1289 5.50784 29.3582 4.17406 28.2739 3.1206C27.1895 2.06714 25.834 1.33535 24.3584 1.00674L23.7934 0.880076ZM9.27502 6.83674C8.96526 6.79138 8.64931 6.85375 8.38002 7.01341H8.35668C7.73169 7.38008 7.16835 7.84174 6.68835 8.38508C6.28835 8.84674 6.07168 9.31341 6.01502 9.76341C5.98168 10.0301 6.00502 10.3001 6.08335 10.5551L6.11335 10.5717C6.56335 11.8934 7.15002 13.1651 7.86668 14.3617C8.79118 16.0423 9.92831 17.5968 11.25 18.9867L11.29 19.0434L11.3534 19.0901L11.3917 19.1351L11.4384 19.1751C12.8333 20.5006 14.3914 21.6432 16.075 22.5751C18 23.6234 19.1684 24.1184 19.87 24.3251V24.3351C20.075 24.3984 20.2617 24.4267 20.45 24.4267C21.0479 24.3839 21.6139 24.1408 22.0567 23.7367C22.5984 23.2567 23.0567 22.6917 23.4134 22.0634V22.0517C23.7484 21.4184 23.635 20.8217 23.1517 20.4167C22.1817 19.5674 21.1318 18.8139 20.0167 18.1667C19.27 17.7617 18.5117 18.0067 18.205 18.4167L17.55 19.2434C17.2134 19.6534 16.6034 19.5967 16.6034 19.5967L16.5867 19.6067C12.035 18.4451 10.82 13.8367 10.82 13.8367C10.82 13.8367 10.7634 13.2101 11.185 12.8901L12.005 12.2301C12.3984 11.9101 12.6717 11.1534 12.25 10.4067C11.6043 9.29245 10.8525 8.24314 10.005 7.27341C9.81964 7.0457 9.56002 6.89052 9.27168 6.83508M16.965 4.83341C16.744 4.83341 16.532 4.92121 16.3758 5.07749C16.2195 5.23377 16.1317 5.44573 16.1317 5.66674C16.1317 5.88776 16.2195 6.09972 16.3758 6.256C16.532 6.41228 16.744 6.50008 16.965 6.50008C19.0734 6.50008 20.8234 7.18841 22.2084 8.50841C22.92 9.23008 23.475 10.0851 23.8384 11.0217C24.2034 11.9601 24.37 12.9617 24.3267 13.9651C24.3221 14.0745 24.3391 14.1838 24.3767 14.2866C24.4144 14.3895 24.4719 14.4839 24.546 14.5646C24.6957 14.7274 24.904 14.8241 25.125 14.8334C25.346 14.8427 25.5617 14.7638 25.7245 14.6141C25.8874 14.4644 25.9841 14.2561 25.9934 14.0351C26.0431 12.801 25.8383 11.5699 25.3917 10.4184C24.943 9.26105 24.2598 8.20901 23.385 7.32841L23.3684 7.31174C21.65 5.67008 19.475 4.83341 16.965 4.83341ZM16.9084 7.57341C16.6873 7.57341 16.4754 7.66121 16.3191 7.81749C16.1628 7.97377 16.075 8.18573 16.075 8.40674C16.075 8.62776 16.1628 8.83972 16.3191 8.996C16.4754 9.15228 16.6873 9.24008 16.9084 9.24008H16.9367C18.4567 9.34841 19.5634 9.85508 20.3384 10.6867C21.1334 11.5434 21.545 12.6084 21.5134 13.9251C21.5083 14.1461 21.5912 14.3601 21.7439 14.5199C21.8966 14.6798 22.1065 14.7725 22.3275 14.7776C22.5485 14.7827 22.7625 14.6997 22.9224 14.5471C23.0823 14.3944 23.1749 14.1844 23.18 13.9634C23.22 12.2351 22.6634 10.7434 21.56 9.55341V9.55008C20.4317 8.34008 18.8834 7.70008 17.02 7.57508L16.9917 7.57174L16.9084 7.57341ZM16.8767 10.3651C16.7652 10.3552 16.6528 10.368 16.5463 10.4025C16.4398 10.4371 16.3414 10.4927 16.2569 10.5661C16.1724 10.6396 16.1035 10.7293 16.0544 10.8299C16.0054 10.9305 15.9771 11.04 15.9712 11.1518C15.9654 11.2636 15.9822 11.3755 16.0205 11.4806C16.0589 11.5858 16.118 11.6822 16.1944 11.764C16.2709 11.8458 16.363 11.9114 16.4653 11.9568C16.5676 12.0023 16.6781 12.0266 16.79 12.0284C17.4867 12.0651 17.9317 12.2751 18.2117 12.5567C18.4934 12.8401 18.7034 13.2951 18.7417 14.0067C18.7438 14.1186 18.7683 14.2288 18.8139 14.331C18.8595 14.4331 18.9252 14.525 19.0071 14.6012C19.089 14.6774 19.1854 14.7364 19.2905 14.7746C19.3956 14.8127 19.5074 14.8293 19.6191 14.8234C19.7308 14.8175 19.8401 14.7891 19.9406 14.74C20.0411 14.6909 20.1307 14.6221 20.2041 14.5377C20.2774 14.4532 20.333 14.3549 20.3675 14.2485C20.402 14.1421 20.4148 14.0298 20.405 13.9184C20.3517 12.9184 20.0384 12.0351 19.3967 11.3851C18.7517 10.7351 17.8734 10.4184 16.8767 10.3651Z" fill="white"/>
</svg>
