<svg width="24" height="24" viewBox="0 0 24 24" fill="none" xmlns="http://www.w3.org/2000/svg">
<path d="M12.362 5.88504C13.5494 6.08404 14.628 6.64486 15.4891 7.50418C16.3502 8.3635 16.9076 9.43991 17.1115 10.6249M12.5433 2C14.6552 2.3573 16.5813 3.35682 18.1131 4.88098C19.6449 6.40966 20.642 8.33183 21 10.4394M19.3503 18.8246C19.3503 18.8246 18.2037 19.9507 17.9227 20.2809C17.465 20.7693 16.9257 21 16.2187 21C16.1507 21 16.0782 21 16.0102 20.9955C14.6642 20.9095 13.4134 20.3849 12.4753 19.9372C9.91018 18.6979 7.65778 16.9386 5.78607 14.7089C4.24066 12.85 3.20736 11.1314 2.52303 9.28612C2.10156 8.15996 1.94747 7.28255 2.01545 6.45489C2.06077 5.92573 2.26471 5.48702 2.64086 5.11164L4.18627 3.56939C4.40834 3.36134 4.644 3.24827 4.87514 3.24827C5.16065 3.24827 5.39178 3.42014 5.53681 3.56486C5.54134 3.56939 5.54587 3.57391 5.5504 3.57843C5.82685 3.83623 6.08971 4.10307 6.36616 4.388C6.50665 4.53273 6.65168 4.67746 6.7967 4.82671L8.03394 6.06141C8.51433 6.54082 8.51433 6.98405 8.03394 7.46346C7.90251 7.59462 7.77561 7.72578 7.64418 7.85241C7.2635 8.24137 7.56255 7.94293 7.16826 8.2957C7.1592 8.30475 7.15014 8.30927 7.1456 8.31831C6.75585 8.70727 6.82836 9.08718 6.90994 9.34497C6.91447 9.35854 6.919 9.37211 6.92354 9.38568C7.24531 10.1636 7.69851 10.8963 8.38737 11.7692L8.3919 11.7737C9.64273 13.3114 10.9615 14.5099 12.4163 15.428C12.6021 15.5456 12.7925 15.6406 12.9737 15.7311C13.1369 15.8125 13.291 15.8894 13.4224 15.9708C13.4405 15.9798 13.4587 15.9934 13.4768 16.0024C13.6309 16.0793 13.7759 16.1155 13.9255 16.1155C14.3016 16.1155 14.5373 15.8803 14.6143 15.8034L15.5027 14.9169C15.6567 14.7631 15.9015 14.5777 16.187 14.5777C16.468 14.5777 16.6991 14.7541 16.8396 14.9079C16.8441 14.9124 16.8441 14.9124 16.8487 14.9169L19.3458 17.4089C19.8126 17.8703 19.3503 18.8246 19.3503 18.8246Z" stroke="#FBA72F" stroke-width="1.5" stroke-linecap="round" stroke-linejoin="round"/>
</svg>
