<svg width="24" height="24" viewBox="0 0 24 24" fill="none" xmlns="http://www.w3.org/2000/svg">
<path fill-rule="evenodd" clip-rule="evenodd" d="M13.5091 6.38376C11.8074 7.09155 8.40641 8.5565 3.30615 10.7786C2.47795 11.1079 2.0441 11.4301 2.0046 11.7452C1.93785 12.2776 2.60462 12.4873 3.51257 12.7728C3.63608 12.8116 3.76404 12.8519 3.89523 12.8945C4.78851 13.1849 5.99014 13.5246 6.61481 13.5381C7.18145 13.5503 7.81389 13.3167 8.51212 12.8373C13.2775 9.62052 15.7373 7.99462 15.8918 7.95957C16.0007 7.93484 16.1517 7.90375 16.254 7.99468C16.3563 8.0856 16.3463 8.2578 16.3354 8.30399C16.2694 8.58558 13.6521 11.0189 12.2976 12.2781C11.8754 12.6706 11.5759 12.949 11.5147 13.0126C11.3775 13.1551 11.2377 13.2899 11.1034 13.4194C10.2735 14.2194 9.65117 14.8193 11.1378 15.799C11.8523 16.2698 12.424 16.6591 12.9943 17.0475C13.6172 17.4717 14.2384 17.8948 15.0422 18.4217C15.247 18.5559 15.4426 18.6954 15.6331 18.8312C16.358 19.3479 17.0092 19.8122 17.8138 19.7382C18.2813 19.6951 18.7642 19.2555 19.0094 17.9445C19.589 14.846 20.7283 8.13261 20.9916 5.36618C21.0146 5.1238 20.9856 4.81361 20.9623 4.67744C20.939 4.54127 20.8903 4.34726 20.7133 4.20364C20.5037 4.03355 20.1801 3.99769 20.0354 4.00011C19.3773 4.01183 18.3677 4.36288 13.5091 6.38376Z" stroke="#FBA72F" stroke-width="1.5" stroke-linejoin="round"/>
</svg>
