<svg width="21" height="21" viewBox="0 0 21 21" fill="none" xmlns="http://www.w3.org/2000/svg">
<g clip-path="url(#clip0_325_409)">
<path d="M5.75432 16.9265C5.75432 16.9265 6.09545 19.1906 6.09545 19.4963C6.09102 19.9614 6.42771 19.7311 6.66251 19.4963C7.3802 18.7741 9.24529 17.4758 9.24529 17.4758C12.3331 17.6752 14.7919 17.0638 15.0577 16.9796C15.6779 16.7803 19.0493 16.4879 19.6207 11.8805C20.21 7.12693 19.4037 3.88405 17.8221 2.52841C17.3436 2.09426 15.288 0.800649 10.9952 0.782928C10.9952 0.782928 5.9138 0.450665 3.4462 2.6879C2.07285 4.04353 1.60768 6.05926 1.55895 8.518C1.51022 10.9767 1.24441 15.6772 5.75432 16.9265ZM5.75432 16.9265C5.74989 16.9265 5.74989 16.9265 5.75432 16.9265ZM12.8481 7.64975C12.786 6.3783 12.0994 5.66947 10.8633 5.60302M10.4292 4.06575C12.9987 4.25182 14.3676 6.01945 14.3189 8.16365M15.8296 8.74401C15.7986 4.85432 13.1715 2.59936 9.90643 2.57721M15.9437 13.7412V13.75C15.4652 14.5918 14.5704 15.5221 13.6489 15.2253L13.64 15.212C12.7053 14.9506 10.5035 13.8165 9.11239 12.7089C8.3947 12.1419 7.73903 11.4729 7.23399 10.8305C6.77769 10.2591 6.31695 9.58124 5.8695 8.76609C4.92588 7.06048 4.71766 6.29849 4.71766 6.29849C4.42084 5.37701 5.34674 4.48212 6.19291 4.00366H6.20177C6.60934 3.79101 6.9992 3.86189 7.26058 4.17644C7.26058 4.17644 7.80992 4.8321 8.04472 5.1555C8.26622 5.45676 8.56305 5.93964 8.7181 6.20988C8.98834 6.69277 8.81999 7.18452 8.55418 7.38831L8.02256 7.8136C7.75232 8.03068 7.78777 8.43383 7.78777 8.43383C7.78777 8.43383 8.57634 11.4153 11.5224 12.1685C11.5224 12.1685 11.9255 12.2039 12.1426 11.9337L12.5679 11.402C12.7717 11.1362 13.2635 10.9679 13.7463 11.2381C14.3976 11.6058 15.226 12.1773 15.7754 12.6956C16.0855 12.9482 16.1564 13.3336 15.9437 13.7412Z" stroke="#FBA72F" stroke-width="2" stroke-linecap="round" stroke-linejoin="round"/>
</g>
<defs>
<clipPath id="clip0_325_409">
<rect width="21" height="21" fill="white"/>
</clipPath>
</defs>
</svg>
