<svg viewBox="0 0 512 512" xmlns="http://www.w3.org/2000/svg" xmlns:xlink="http://www.w3.org/1999/xlink"><style>:root&gt;svg{display:none}:root&gt;svg:target{display:block}</style><svg fill="none" viewBox="0 0 24 24" id="css--arrow" xmlns="http://www.w3.org/2000/svg"><path fill-rule="evenodd" clip-rule="evenodd" d="M10.53 5.47a.75.75 0 010 1.06l-4.72 4.72H20a.75.75 0 010 1.5H5.81l4.72 4.72a.752.752 0 01-.23 1.244.748.748 0 01-.83-.184l-6-6a.75.75 0 010-1.06l6-6a.75.75 0 011.06 0z" fill="#1B3346"/></svg><svg fill="none" viewBox="0 0 50 50" id="css--btn-play" xmlns="http://www.w3.org/2000/svg"><g filter="url(#abfilter0_b_325_2119)"><rect width="50" height="50" rx="25" fill="#fff" fill-opacity=".7"/><rect x=".75" y=".75" width="48.5" height="48.5" rx="24.25" stroke="#1B3346" stroke-width="1.5"/><path d="M31.467 25.1a.5.5 0 010 .8L22.8 32.4a.5.5 0 01-.8-.4V19a.5.5 0 01.8-.4l8.667 6.5z" fill="#1B3346"/></g><defs><filter id="abfilter0_b_325_2119" x="-2" y="-2" width="54" height="54" filterUnits="userSpaceOnUse" color-interpolation-filters="sRGB"><feFlood flood-opacity="0" result="BackgroundImageFix"/><feGaussianBlur in="BackgroundImageFix" stdDeviation="1"/><feComposite in2="SourceAlpha" operator="in" result="effect1_backgroundBlur_325_2119"/><feBlend in="SourceGraphic" in2="effect1_backgroundBlur_325_2119" result="shape"/></filter></defs></svg><svg fill="none" viewBox="0 0 18 18" id="css--close" xmlns="http://www.w3.org/2000/svg"><path d="M17 1L1 17m16 0L1 1" stroke="#1B3346" stroke-width="2" stroke-linecap="round"/></svg><svg fill="none" viewBox="0 0 25 24" id="css--filter-icon" xmlns="http://www.w3.org/2000/svg"><path d="M4.5 4h16v2.172a2 2 0 01-.586 1.414L15.5 12v7l-6 2v-8.5L5.02 7.572a2 2 0 01-.52-1.345V4z" stroke="#1B3346" stroke-width="2" stroke-linecap="round" stroke-linejoin="round"/></svg><svg fill="none" viewBox="0 0 11 10" id="css--i_cross" xmlns="http://www.w3.org/2000/svg"><path d="M9.055 1.444l-7.11 7.112m7.11 0l-7.11-7.112" stroke="#1B3346" stroke-width="2" stroke-linecap="round"/></svg><svg fill="none" viewBox="0 0 24 24" id="css--i_eye" xmlns="http://www.w3.org/2000/svg"><path d="M21 12c0 1.2-4.03 6-9 6s-9-4.8-9-6c0-1.2 4.03-6 9-6s9 4.8 9 6z" stroke="#93C8F3" stroke-width="2"/><path d="M15 12a3 3 0 11-6 0 3 3 0 016 0z" stroke="#93C8F3" stroke-width="2"/></svg><svg fill="none" viewBox="0 0 24 24" id="css--i_eye-slash" xmlns="http://www.w3.org/2000/svg"><path d="M3.933 13.909A4.357 4.357 0 013 12c0-1 4-6 9-6m7.6 3.8A5.068 5.068 0 0121 12c0 1-3 6-9 6-.314 0-.62-.014-.918-.04M5 19L19 5m-4 7a3 3 0 11-6 0 3 3 0 016 0z" stroke="#93C8F3" stroke-width="2" stroke-linecap="round" stroke-linejoin="round"/></svg><svg fill="none" viewBox="0 0 34 35" id="css--i_facebook" xmlns="http://www.w3.org/2000/svg"><path d="M33.667 17.5C33.667 8.3 26.2.833 17 .833 7.8.833.333 8.3.333 17.5c0 8.067 5.734 14.783 13.334 16.333V22.5h-3.334v-5h3.334v-4.167A5.84 5.84 0 0119.5 7.5h4.167v5h-3.334c-.916 0-1.666.75-1.666 1.667V17.5h5v5h-5v11.583c8.416-.833 15-7.933 15-16.583z" fill="#fff"/></svg><svg fill="none" viewBox="0 0 24 24" id="css--i_info" xmlns="http://www.w3.org/2000/svg"><path d="M10 11h2v5m-2 0h4m-2.592-8.5h.01M21 12a9 9 0 11-18 0 9 9 0 0118 0z" stroke="#fff" stroke-width="2" stroke-linecap="round" stroke-linejoin="round"/></svg><svg viewBox="0 0 512 512" id="css--i_link" xmlns="http://www.w3.org/2000/svg"><path d="M49.1 255.6c0-43.8 35.9-78.9 78.9-78.9h102.6v-48.2H128c-71 0-128 57-128 128 0 70.1 57 128 128 128h102.6v-50H128c-43.8 0-78.9-35.1-78.9-78.9zM153.4 281h204.3v-50.8H153.4V281zM384 127.6H281.4v49.1H384c43.8 0 78.9 35.9 78.9 78.9S427 334.5 384 334.5H281.4v48.2H384c70.1 0 128-57 128-128 0-70.2-57.9-127.1-128-127.1z" fill="#fff"/></svg><svg fill="none" viewBox="0 0 18 22" id="css--i_location" xmlns="http://www.w3.org/2000/svg"><path d="M4 17c-1.829.412-3 1.044-3 1.754C1 19.994 4.582 21 9 21s8-1.006 8-2.246c0-.71-1.171-1.342-3-1.754m-2.5-9a2.5 2.5 0 11-5 0 2.5 2.5 0 015 0z" stroke="#1B3346" stroke-width="2" stroke-linecap="round" stroke-linejoin="round"/><path d="M10.257 16.494a1.813 1.813 0 01-2.514 0c-3.089-2.993-7.228-6.336-5.21-11.19C3.626 2.679 6.246 1 9 1c2.754 0 5.375 1.68 6.467 4.304 2.016 4.847-2.113 8.207-5.21 11.19z" stroke="#1B3346" stroke-width="2" stroke-linecap="round" stroke-linejoin="round"/></svg><svg fill="none" viewBox="0 0 34 33" id="css--i_telegram" xmlns="http://www.w3.org/2000/svg"><path d="M17 0C7.609 0 0 7.385 0 16.5S7.609 33 17 33s17-7.385 17-16.5S26.391 0 17 0zm8.35 11.304l-2.79 12.76c-.206.906-.762 1.125-1.536.7l-4.25-3.041-2.05 1.916c-.226.22-.418.406-.857.406l.302-4.198 7.876-6.907c.343-.292-.075-.458-.528-.166l-9.733 5.948-4.196-1.27c-.911-.28-.932-.886.192-1.311l16.39-6.134c.761-.267 1.426.18 1.18 1.297z" fill="#fff"/></svg><svg fill="none" viewBox="0 0 32 35" id="css--i_viber" xmlns="http://www.w3.org/2000/svg"><path fill-rule="evenodd" clip-rule="evenodd" d="M23.793.88a36.5 36.5 0 00-15.925 0l-.565.125a8.167 8.167 0 00-6.14 5.967 32.5 32.5 0 000 15.961 8.166 8.166 0 005.74 5.867l.775 4.627a.833.833 0 001.377.483l4.552-4.072a36.662 36.662 0 0010.186-.811l.567-.125a8.166 8.166 0 006.14-5.967 32.499 32.499 0 000-15.962 8.167 8.167 0 00-6.142-5.966L23.793.88zM9.275 6.837a1.367 1.367 0 00-.895.176h-.023a6.846 6.846 0 00-1.669 1.372c-.4.462-.616.928-.673 1.378-.033.267-.01.537.068.792l.03.017a19.79 19.79 0 001.754 3.79 22.33 22.33 0 003.383 4.625l.04.056.063.047.039.045.046.04a22.666 22.666 0 004.637 3.4c1.925 1.048 3.093 1.543 3.795 1.75v.01c.205.063.392.092.58.092a2.666 2.666 0 001.607-.69c.541-.48 1-1.045 1.356-1.674v-.011c.335-.634.222-1.23-.261-1.635-.97-.85-2.02-1.603-3.135-2.25-.747-.405-1.505-.16-1.812.25l-.655.826c-.337.41-.947.354-.947.354l-.016.01c-4.552-1.162-5.767-5.77-5.767-5.77s-.057-.627.365-.947l.82-.66c.393-.32.667-1.077.245-1.823a20 20 0 00-2.245-3.134 1.25 1.25 0 00-.733-.438m7.693-2.002a.833.833 0 100 1.667c2.108 0 3.858.688 5.243 2.008a7.388 7.388 0 011.63 2.514c.365.938.532 1.94.489 2.943a.834.834 0 101.666.07 9 9 0 00-2.608-6.707l-.017-.016c-1.718-1.642-3.893-2.479-6.403-2.479zm-.057 2.74a.833.833 0 100 1.667h.029c1.52.108 2.626.615 3.401 1.447.795.856 1.207 1.921 1.175 3.238a.833.833 0 101.667.038c.04-1.728-.517-3.22-1.62-4.41V9.55c-1.128-1.21-2.677-1.85-4.54-1.975l-.028-.003-.084.001zm-.031 2.792a.833.833 0 10-.087 1.663c.697.037 1.142.247 1.422.529.281.283.491.738.53 1.45a.834.834 0 101.663-.089c-.053-1-.367-1.883-1.008-2.533-.645-.65-1.524-.967-2.52-1.02z" fill="#fff"/></svg><svg fill="none" viewBox="0 0 24 24" id="css--phone_call" xmlns="http://www.w3.org/2000/svg"><path d="M12.362 5.885a5.751 5.751 0 013.127 1.62 5.76 5.76 0 011.622 3.12M12.543 2a10.304 10.304 0 015.57 2.881A10.239 10.239 0 0121 10.439m-1.65 8.386s-1.146 1.126-1.427 1.456c-.458.488-.997.719-1.704.719-.068 0-.14 0-.209-.005-1.346-.085-2.597-.61-3.535-1.058a20.127 20.127 0 01-6.689-5.228C4.241 12.85 3.207 11.13 2.523 9.286c-.421-1.126-.576-2.003-.508-2.831.046-.53.25-.968.626-1.343l1.545-1.543c.222-.208.458-.32.69-.32.285 0 .516.171.66.316l.014.013c.277.258.54.525.816.81.14.145.286.29.43.439L8.035 6.06c.48.48.48.923 0 1.402-.131.132-.258.263-.39.39-.38.388-.081.09-.476.443-.009.009-.018.013-.022.022-.39.39-.318.77-.236 1.027l.014.04c.321.779.775 1.511 1.463 2.384l.005.005c1.25 1.537 2.57 2.736 4.024 3.654.186.118.377.213.558.303.163.082.317.158.448.24l.055.031a.983.983 0 00.448.114c.377 0 .612-.236.69-.313l.888-.886c.154-.154.399-.34.684-.34.281 0 .512.177.653.33a.777.777 0 00.009.01l2.497 2.492c.467.461.004 1.416.004 1.416z" stroke="#FBA72F" stroke-width="1.5" stroke-linecap="round" stroke-linejoin="round"/></svg><svg fill="none" viewBox="0 0 21 21" id="css--place" xmlns="http://www.w3.org/2000/svg"><path d="M10.5 8.125v7.917m-3.563-3.67C3.457 12.957 1 14.38 1 16.041 1 18.228 5.253 20 10.5 20s9.5-1.772 9.5-3.958c0-1.662-2.456-3.084-5.938-3.67m-.395-8.205a3.167 3.167 0 11-6.334 0 3.167 3.167 0 016.334 0z" stroke="#FBA72F" stroke-width="2" stroke-linecap="round" stroke-linejoin="round"/></svg><svg fill="none" viewBox="0 0 24 24" id="css--share" xmlns="http://www.w3.org/2000/svg"><path d="M21 11.459L11.4 5.1v3.6C3 10.5 3 18.9 3 18.9s3.6-4.8 8.4-4.2v3.72l9.6-6.961z" stroke="#1B3346" stroke-width="2" stroke-linejoin="round"/></svg><svg fill="none" viewBox="0 0 24 24" id="css--sort-icon" xmlns="http://www.w3.org/2000/svg"><g clip-path="url(#aqclip0_77_4004)" fill="#1B3346"><path d="M19.027 8.667H4.973a.667.667 0 010-1.334h14.054a.666.666 0 110 1.334zm-4.914 4h-9.14a.667.667 0 010-1.334h9.14a.667.667 0 010 1.334zm-4.953 4H4.973a.667.667 0 010-1.334H9.16a.667.667 0 010 1.334z"/></g><defs><clipPath id="aqclip0_77_4004"><path fill="#fff" d="M0 0h24v24H0z"/></clipPath></defs></svg><svg fill="none" viewBox="0 0 24 24" id="css--telegram" xmlns="http://www.w3.org/2000/svg"><path clip-rule="evenodd" d="M13.51 6.384c-1.703.708-5.104 2.172-10.204 4.395-.828.329-1.262.651-1.301.966-.067.533.6.742 1.508 1.028.123.039.251.079.382.122.894.29 2.095.63 2.72.643.566.012 1.199-.221 1.897-.7 4.765-3.217 7.225-4.843 7.38-4.878.109-.025.26-.056.362.035.102.09.092.263.081.309-.066.282-2.683 2.715-4.037 3.974-.423.393-.722.671-.783.735-.138.142-.277.277-.412.406-.83.8-1.452 1.4.035 2.38.714.47 1.286.86 1.856 1.248.623.425 1.244.848 2.048 1.375.205.134.4.273.591.41.725.516 1.376.98 2.18.906.468-.043.951-.482 1.196-1.793.58-3.099 1.72-9.812 1.983-12.579a3.09 3.09 0 00-.03-.689.737.737 0 00-.249-.473c-.21-.17-.533-.206-.678-.204-.658.012-1.667.363-6.526 2.384z" stroke="#FBA72F" stroke-width="1.5" stroke-linejoin="round"/></svg><svg fill="none" viewBox="0 0 22 22" id="css--user" xmlns="http://www.w3.org/2000/svg"><path d="M1.4 19.512c0-3.775 3.154-6.836 9.6-6.836s9.6 3.06 9.6 6.836c0 .601-.438 1.088-.979 1.088H2.38c-.54 0-.979-.487-.979-1.088zM14.6 5a3.6 3.6 0 11-7.2 0 3.6 3.6 0 017.2 0z" stroke="#FBA72F" stroke-width="2"/></svg><svg fill="none" viewBox="0 0 21 21" id="css--viber" xmlns="http://www.w3.org/2000/svg"><g clip-path="url(#atclip0_325_409)"><path d="M5.754 16.927s.341 2.264.341 2.57c-.004.464.333.234.568 0 .717-.723 2.582-2.021 2.582-2.021 3.088.2 5.547-.412 5.813-.496.62-.2 3.991-.492 4.563-5.1.589-4.753-.217-7.996-1.799-9.352-.478-.434-2.534-1.727-6.827-1.745 0 0-5.081-.332-7.549 1.905-1.373 1.356-1.838 3.371-1.887 5.83-.049 2.459-.315 7.16 4.195 8.409zm0 0c-.004 0-.004 0 0 0zm7.094-9.277c-.062-1.272-.749-1.98-1.985-2.047m-.434-1.537c2.57.186 3.939 1.953 3.89 4.098m1.51.58c-.03-3.89-2.658-6.145-5.923-6.167m6.038 11.164v.009c-.479.842-1.374 1.772-2.295 1.475l-.009-.013c-.935-.261-3.136-1.396-4.528-2.503a11.578 11.578 0 01-1.878-1.878A14.371 14.371 0 015.87 8.766C4.926 7.06 4.718 6.298 4.718 6.298c-.297-.921.629-1.816 1.475-2.294h.009c.407-.213.797-.142 1.059.172 0 0 .549.656.784.98.221.3.518.784.673 1.054.27.483.102.975-.164 1.178l-.531.426c-.27.217-.235.62-.235.62s.788 2.981 3.734 3.735c0 0 .403.035.62-.235l.426-.532c.204-.266.696-.434 1.178-.164.652.368 1.48.94 2.03 1.458.31.252.38.638.168 1.045z" stroke="#FBA72F" stroke-width="2" stroke-linecap="round" stroke-linejoin="round"/></g><defs><clipPath id="atclip0_325_409"><path fill="#fff" d="M0 0h21v21H0z"/></clipPath></defs></svg><svg fill="none" viewBox="0 0 9 20" id="i_arrow" xmlns="http://www.w3.org/2000/svg"><path d="M8 1l-7 9 7 9" stroke="#1B3346" stroke-width="2" stroke-linecap="round" stroke-linejoin="round"/></svg><svg fill="none" viewBox="0 0 34 35" id="i_facebook" xmlns="http://www.w3.org/2000/svg"><path d="M33.667 17.5C33.667 8.3 26.2.833 17 .833 7.8.833.333 8.3.333 17.5c0 8.067 5.734 14.783 13.334 16.333V22.5h-3.334v-5h3.334v-4.167A5.84 5.84 0 0119.5 7.5h4.167v5h-3.334c-.916 0-1.666.75-1.666 1.667V17.5h5v5h-5v11.583c8.416-.833 15-7.933 15-16.583z" fill="#fff"/></svg><svg fill="none" viewBox="0 0 21 21" id="i_location" xmlns="http://www.w3.org/2000/svg"><path d="M10.5 8.125v7.917m-3.563-3.67C3.457 12.957 1 14.38 1 16.041 1 18.228 5.253 20 10.5 20s9.5-1.772 9.5-3.958c0-1.662-2.456-3.084-5.938-3.67m-.395-8.205a3.167 3.167 0 11-6.334 0 3.167 3.167 0 016.334 0z" stroke="#fff" stroke-width="2" stroke-linecap="round" stroke-linejoin="round"/></svg><svg fill="none" viewBox="0 0 34 27" id="i_mail" xmlns="http://www.w3.org/2000/svg"><path d="M30.333.167H3.667C1.833.167.35 1.667.35 3.5l-.017 20c0 1.833 1.5 3.333 3.334 3.333h26.666c1.834 0 3.334-1.5 3.334-3.333v-20c0-1.833-1.5-3.333-3.334-3.333zm0 6.666L17 15.167 3.667 6.833V3.5L17 11.833 30.333 3.5v3.333z" fill="#fff"/></svg><svg fill="none" viewBox="0 0 22 15" id="i_price" xmlns="http://www.w3.org/2000/svg"><path d="M1.4 3.3a1.8 1.8 0 011.8-1.8h15.6a1.8 1.8 0 011.8 1.8v8.4a1.8 1.8 0 01-1.8 1.8H3.2a1.8 1.8 0 01-1.8-1.8V3.3z" stroke="#fff" stroke-width="2"/><path d="M13.4 7.5a2.4 2.4 0 11-4.8 0 2.4 2.4 0 014.8 0z" stroke="#fff" stroke-width="2"/></svg><svg fill="none" viewBox="0 0 35 35" id="i_refresh" xmlns="http://www.w3.org/2000/svg"><path d="M33.804 12.72a1.093 1.093 0 00-1.361-.72c-.57.178-.884.787-.702 1.36 1.732 5.465.159 11.484-4.01 15.334-5.956 5.503-15.303 5.066-20.837-.973-5.534-6.04-5.191-15.43.765-20.932 5.28-4.876 13.22-5.084 18.812-.864l-1.364-.031a1.073 1.073 0 00-1.097 1.062 1.096 1.096 0 001.068 1.113l4.247.1a1.07 1.07 0 00.858-.397c.209-.258.286-.6.212-.926l-.988-4.315a1.095 1.095 0 00-1.298-.83c-.583.13-.946.71-.812 1.298l.232 1.014C21.13-.646 12.166-.344 6.185 5.182c-6.831 6.31-7.225 17.08-.878 24.005 6.347 6.926 17.068 7.428 23.899 1.117 4.78-4.415 6.585-11.318 4.598-17.584z" fill="#1B3346"/></svg><svg fill="none" viewBox="0 0 19 20" id="i_search" xmlns="http://www.w3.org/2000/svg"><path d="M14.486 15.406l3.514 3.4m-1.133-9.067A7.933 7.933 0 111 9.74a7.933 7.933 0 0115.867 0z" stroke="#1B3346" stroke-width="2" stroke-linecap="round"/></svg><svg fill="none" viewBox="0 0 24 24" id="i_share" xmlns="http://www.w3.org/2000/svg"><path d="M21 11.459L11.4 5.1v3.6C3 10.5 3 18.9 3 18.9s3.6-4.8 8.4-4.2v3.72l9.6-6.961z" stroke="#1B3346" stroke-width="2" stroke-linejoin="round"/></svg><svg fill="none" viewBox="0 0 34 33" id="i_telegram" xmlns="http://www.w3.org/2000/svg"><path d="M17 0C7.609 0 0 7.385 0 16.5S7.609 33 17 33s17-7.385 17-16.5S26.391 0 17 0zm8.35 11.304l-2.79 12.76c-.206.906-.762 1.125-1.536.7l-4.25-3.041-2.05 1.916c-.226.22-.418.406-.857.406l.302-4.198 7.876-6.907c.343-.292-.075-.458-.528-.166l-9.733 5.948-4.196-1.27c-.911-.28-.932-.886.192-1.311l16.39-6.134c.761-.267 1.426.18 1.18 1.297z" fill="#fff"/></svg><svg fill="none" viewBox="0 0 32 35" id="i_viber" xmlns="http://www.w3.org/2000/svg"><path fill-rule="evenodd" clip-rule="evenodd" d="M23.793.88a36.5 36.5 0 00-15.925 0l-.565.125a8.167 8.167 0 00-6.14 5.967 32.5 32.5 0 000 15.961 8.166 8.166 0 005.74 5.867l.775 4.627a.833.833 0 001.377.483l4.552-4.072a36.662 36.662 0 0010.186-.811l.567-.125a8.166 8.166 0 006.14-5.967 32.499 32.499 0 000-15.962 8.167 8.167 0 00-6.142-5.966L23.793.88zM9.275 6.837a1.367 1.367 0 00-.895.176h-.023a6.846 6.846 0 00-1.669 1.372c-.4.462-.616.928-.673 1.378-.033.267-.01.537.068.792l.03.017a19.79 19.79 0 001.754 3.79 22.33 22.33 0 003.383 4.625l.04.056.063.047.039.045.046.04a22.666 22.666 0 004.637 3.4c1.925 1.048 3.093 1.543 3.795 1.75v.01c.205.063.392.092.58.092a2.666 2.666 0 001.607-.69c.541-.48 1-1.045 1.356-1.674v-.011c.335-.634.222-1.23-.261-1.635-.97-.85-2.02-1.603-3.135-2.25-.747-.405-1.505-.16-1.812.25l-.655.826c-.337.41-.947.354-.947.354l-.016.01c-4.552-1.162-5.767-5.77-5.767-5.77s-.057-.627.365-.947l.82-.66c.393-.32.667-1.077.245-1.823a20 20 0 00-2.245-3.134 1.25 1.25 0 00-.733-.438m7.693-2.002a.833.833 0 100 1.667c2.108 0 3.858.688 5.243 2.008a7.388 7.388 0 011.63 2.514c.365.938.532 1.94.489 2.943a.834.834 0 101.666.07 9 9 0 00-2.608-6.707l-.017-.016c-1.718-1.642-3.893-2.479-6.403-2.479zm-.057 2.74a.833.833 0 100 1.667h.029c1.52.108 2.626.615 3.401 1.447.795.856 1.207 1.921 1.175 3.238a.833.833 0 101.667.038c.04-1.728-.517-3.22-1.62-4.41V9.55c-1.128-1.21-2.677-1.85-4.54-1.975l-.028-.003-.084.001zm-.031 2.792a.833.833 0 10-.087 1.663c.697.037 1.142.247 1.422.529.281.283.491.738.53 1.45a.834.834 0 101.663-.089c-.053-1-.367-1.883-1.008-2.533-.645-.65-1.524-.967-2.52-1.02z" fill="#fff"/></svg><svg fill="none" viewBox="0 0 71 77" id="logo" xmlns="http://www.w3.org/2000/svg"><path d="M27.572 2.591a15.85 15.85 0 0115.856 0l19.047 10.992a15.875 15.875 0 017.928 13.735v21.976c0 5.667-3.03 10.902-7.928 13.735L43.428 74.021a15.85 15.85 0 01-15.856 0L8.525 63.029A15.875 15.875 0 01.598 49.294V27.318a15.875 15.875 0 017.927-13.735L27.572 2.59z" fill="#fff"/><path fill-rule="evenodd" clip-rule="evenodd" d="M40.482 5.245a10.04 10.04 0 00-9.965 0L9.036 17.583a9.824 9.824 0 00-4.983 8.56v24.67a9.83 9.83 0 004.983 8.564l17.761 10.196v-4.84l-1.585-.91-14.883-8.532V29.67l3.883 2.228v21.768l10.03 5.754V37.647l3.946 2.254v21.736l2.815 1.626-.259 8.577a10.042 10.042 0 009.738-.129l21.482-12.334a9.83 9.83 0 004.983-8.563V26.143a9.824 9.824 0 00-4.983-8.56L40.482 5.245zm1.391 6.587l-3.267 7.515.162.103 13.135-1.867 4.626 2.648L38.444 22.7 34.27 33.105l-4.66-2.684 3.139-7.515-.161-.103-13.104 1.806-4.658-2.664 18.214-2.357 4.206-10.405 4.626 2.649zm.81 28.413v25.622l4.043-2.32v-10.87l10.353-5.934v10.868l4.044-2.32V29.668l-4.044 2.32v10.853l-10.353 5.93V37.925l-4.044 2.32z" fill="#FF7B00"/></svg></svg>