<svg width="24" height="24" viewBox="0 0 24 24" fill="none" xmlns="http://www.w3.org/2000/svg">
<path d="M16.5555 17.9998H6.77779C6.54358 17.9998 6.31168 17.9582 6.09541 17.8773C5.87914 17.7964 5.68276 17.6778 5.51757 17.5284C5.35237 17.3789 5.2216 17.2016 5.13279 17.0066C5.04397 16.8115 4.99885 16.6026 5.00002 16.3918V8.88795C5.00002 8.63328 5.13336 8.39862 5.35558 8.24462L11.1185 4.82734C11.2721 4.72297 11.4594 4.6665 11.6519 4.6665C11.8443 4.6665 12.0316 4.72297 12.1852 4.82734L17.9778 8.24462C18.2 8.39862 18.3333 8.63328 18.3333 8.88795V16.3918C18.3345 16.6026 18.2894 16.8115 18.2005 17.0066C18.1117 17.2016 17.981 17.3789 17.8158 17.5284C17.6506 17.6778 17.4542 17.7964 17.2379 17.8773C17.0217 17.9582 16.7897 17.9998 16.5555 17.9998Z" stroke="#FFFFFF" stroke-width="2" stroke-miterlimit="10" stroke-linejoin="round"/>
<path d="M10.0374 11.3335H13.2967C13.6226 11.3335 13.8893 11.5735 13.8893 11.8668V18.0001H9.44482V11.8668C9.44482 11.5735 9.71149 11.3335 10.0374 11.3335Z" stroke="#FFFFFF" stroke-width="2" stroke-miterlimit="10" stroke-linejoin="round"/>
</svg>
