<svg width="35" height="35" viewBox="0 0 35 35" fill="none" xmlns="http://www.w3.org/2000/svg">
<path d="M33.804 12.7198C33.622 12.1459 33.013 11.8239 32.443 12.0011C31.8733 12.1787 31.5588 12.7876 31.7411 13.3618C33.4733 18.8265 31.8996 24.8453 27.7317 28.6955C21.7755 34.1978 12.4277 33.761 6.89359 27.7217C1.35952 21.6824 1.70296 12.2928 7.65919 6.79047C12.9383 1.9137 20.8797 1.70649 26.4706 5.92596L25.1071 5.89457C24.5091 5.88079 24.0177 6.35672 24.0099 6.95748C24.0057 7.24831 24.1164 7.51555 24.2995 7.71535C24.4938 7.92737 24.7699 8.06316 25.0784 8.07049L29.3253 8.16919C29.6577 8.17702 29.9736 8.03072 30.1826 7.77288C30.3916 7.51503 30.4694 7.17345 30.3949 6.84722L29.4074 2.53155C29.2725 1.94443 28.6919 1.57362 28.1089 1.70282C27.5263 1.83234 27.1629 2.41279 27.2969 2.99956L27.5289 4.01434C21.1307 -0.646276 12.1664 -0.343676 6.18509 5.18179C-0.645961 11.4923 -1.03955 22.2613 5.30704 29.1873C11.6536 36.1133 22.3748 36.6147 29.2058 30.3042C33.9855 25.8888 35.7905 18.9862 33.804 12.7198Z" fill="#1B3346"/>
</svg>
