<svg width="21" height="20" viewBox="0 0 21 20" fill="none" xmlns="http://www.w3.org/2000/svg">
<path d="M20.25 18H18V1.5C18 1.10218 17.842 0.720644 17.5607 0.43934C17.2794 0.158035 16.8978 0 16.5 0H4.5C4.10218 0 3.72064 0.158035 3.43934 0.43934C3.15804 0.720644 3 1.10218 3 1.5V18H0.75C0.551088 18 0.360322 18.079 0.21967 18.2197C0.0790176 18.3603 0 18.5511 0 18.75C0 18.9489 0.0790176 19.1397 0.21967 19.2803C0.360322 19.421 0.551088 19.5 0.75 19.5H20.25C20.4489 19.5 20.6397 19.421 20.7803 19.2803C20.921 19.1397 21 18.9489 21 18.75C21 18.5511 20.921 18.3603 20.7803 18.2197C20.6397 18.079 20.4489 18 20.25 18ZM4.5 1.5H16.5V18H4.5V1.5ZM14.25 10.125C14.25 10.3475 14.184 10.565 14.0604 10.75C13.9368 10.935 13.7611 11.0792 13.5555 11.1644C13.35 11.2495 13.1238 11.2718 12.9055 11.2284C12.6873 11.185 12.4868 11.0778 12.3295 10.9205C12.1722 10.7632 12.065 10.5627 12.0216 10.3445C11.9782 10.1262 12.0005 9.90005 12.0856 9.69448C12.1708 9.48891 12.315 9.31321 12.5 9.1896C12.685 9.06598 12.9025 9 13.125 9C13.4234 9 13.7095 9.11853 13.9205 9.3295C14.1315 9.54048 14.25 9.82663 14.25 10.125Z" fill="#1B3346"/>
</svg>
