<svg width="71" height="77" viewBox="0 0 71 77" fill="none" xmlns="http://www.w3.org/2000/svg">
<path d="M27.5722 2.59121C32.4707 -0.242115 38.5292 -0.242115 43.4278 2.59121L62.4747 13.5829C67.3732 16.4162 70.4025 21.6509 70.4025 27.3176V49.2944C70.4025 54.9611 67.3732 60.1958 62.4747 63.0291L43.4278 74.0208C38.5292 76.8541 32.4707 76.8541 27.5722 74.0208L8.52533 63.0291C3.62678 60.1958 0.597534 54.9611 0.597534 49.2944V27.3176C0.597534 21.6509 3.62678 16.4162 8.52533 13.5829L27.5722 2.59121Z" fill="white"/>
<path fill-rule="evenodd" clip-rule="evenodd" d="M40.4824 5.24549C37.4089 3.48075 33.5911 3.48075 30.5175 5.24549L9.03567 17.5826C5.92981 19.3474 4.05322 22.6132 4.05322 26.1427V50.8137C4.05322 54.3464 5.92981 57.6091 9.03567 59.377L26.7973 69.5734V64.7323L25.212 63.8227L10.3295 55.2915V29.669L14.2116 31.8966V53.665L24.2413 59.4188V37.6473L28.1882 39.9006V61.6368L31.0033 63.2633L30.7442 71.8395C33.7854 73.4757 37.4736 73.4339 40.4824 71.711L61.9643 59.377C65.0702 57.6091 66.9468 54.3464 66.9468 50.8137V26.1427C66.9468 22.6132 65.0702 19.3474 61.9643 17.5826L40.4824 5.24549ZM41.8734 11.8319L38.6057 19.3473L38.7677 19.4502L51.9031 17.5826L56.5293 20.2313L38.4438 22.7L34.271 33.1052L29.6116 30.4212L32.7497 22.9058L32.5886 22.8029L19.4855 24.6094L14.8269 21.9446L33.0412 19.5884L37.2472 9.1832L41.8734 11.8319ZM42.6822 40.2446V65.8671L46.7263 63.5462V52.6781L57.079 46.7442V57.6123L61.1231 55.2915V29.669L57.079 31.9898V42.8419L46.7263 48.7725V37.9237L42.6822 40.2446Z" fill="#FF7B00"/>
</svg>
